<svg xmlns="http://www.w3.org/2000/svg" version="1.1" xmlns:xlink="http://www.w3.org/1999/xlink" xmlns:svgjs="http://svgjs.dev/svgjs" viewBox="0 0 1422 800"><defs><linearGradient x1="50%" y1="0%" x2="50%" y2="100%" id="ssscribble-grad"><stop stop-color="hsl(0, 0%, 0%)" stop-opacity="1" offset="0%"></stop><stop stop-color="hsl(0, 0%, 100%)" stop-opacity="1" offset="100%"></stop></linearGradient></defs><g fill="none" stroke-width="1.5" stroke="url(#ssscribble-grad)" stroke-linecap="round"><path d="M1225.05 617.07C1332.96 649.93 1396.52 688.03 1401.95 722.85 1352.43 747.57 1259.16 750.48 1146.14 717.29 1033.84 663.1 943.47 579.82 885.84 496.75 864.38 467.29 874.11 514.87 903.77 656.22 950.61 837.23 996.89 984.07 1033.61 1002.37 1074.01 790.68 1066.11 824.66 1030.87 1089.06 1002.5 1024.38 970.85 800.85 937.99 651.15 905.13 745.31 872.62 972.62 839.01 1092.56 803.07 991.85 761.71 767.17 711.58 618.38 654.46 653.5 584.43 819.77 501.34 969.54 413.97 1001.96 320.52 892.21 230.61 717.12 133.53 508.82 150.29 561.69 268.95 661.95 395.17 717.78 416.07 675.41 273.05 626.95 154.69 594.09 63.5 561.13 21.83 520.82 34.67 470.86 100.57 397.28 200.64 291.43 315.58 173.37 422.44 40.94 505.12 -70.27 556.73 -116.88 575.32 -78.48 568.18 43.92 537.89 175.95 499.79 246.76 464.22 180.16 415.09 -101.68 392.94 -31.14 415.96 159.91 436.85 27.34 464.5 -206.63 497.36 -300.85 530.22 -151.2 566.73 79 607.81 156.41 650.97 16.57 702.33 -188.42 763.91 -265.48 830.48 -153.03 908.8 57.63 996.48 212.95 1082.69 228.88 1167.98 121.01 1241.34 -16.92 1291.56 -115.21 1311.93 -115.62 1294.54 -35.52 1246.09 98.19 1168.7 235.59 1077.85 346.72 1001.86 436.86 954.66 493.73 954.49 530.98 1008.82 558.14 1106.66 584.2 1225.01 617.06Q1225.05 617.07 1225.05 617.07" opacity="0.22"></path><path d="M1191.05 552.09C1324.27 588.42 1299.86 552.78 1162.98 478.72 1055.73 436.2 959.03 408 884.95 425.17 838.24 503.13 819.97 641.46 823.99 809.14 848.59 935.46 880.95 969.67 912.29 879.59 946.61 723.52 970.82 593.79 982.59 599.11 989.36 859.85 946.04 856.57 903.74 617.15 873.23 697.2 837.22 906.27 795.34 1049.17 751.89 1008.01 699.93 817.74 638.51 631.66 573.85 573.38 499.39 666.01 418.04 821.68 339.67 945.15 263.5 955.5 198.91 861.46 154.9 703.66 136.99 551.22 151.93 446.54 194.24 396.8 263.57 399.08 348.45 425.85 454.28 491.02 443.36 535.05 307.05 500.39 196.78 469.88 108.58 418.62 61.28 346.83 59.82 273.67 106.38 181.52 187.97 81.79 290.29 2.13 394.93 -50.4 486.48 -47.71 557.84 9.91 602.46 118.54 622.55 236.35 619.52 290.43 602.62 243.92 580.61 88.7 550.97 -98.74 526.85 -218.76 512.42 -182.88 498.84 -19.19 496.95 153.72 506.66 183.15 517.4 28.52 538.2 -186.74 568.7 -266.85 599.22 -133.72 638 84.94 684.8 193.84 732.64 109.56 790.04 -80.94 856.49 -215.4 923.81 -198.38 998.18 -41.29 1074.84 146.55 1143.89 268.41 1204.6 270.4 1247.62 184.07 1267.54 56.38 1259.11 -38.14 1219.52 -69.07 1159.75 -39.21 1082.48 39.23 1002.52 134.63 943.3 242.84 914.09 335.79 927.31 406.54 986.37 473.63 1080.75 521.56 1191.01 552.08Q1191.05 552.09 1191.05 552.09" opacity="0.63"></path><path d="M1157.05 311.78C1283.12 343.96 1289.64 333.48 1177.77 333.01 1080.71 362.78 984.86 427.38 902.02 535.59 837.05 665.47 794.97 802.97 773.85 903.25 772.57 924.77 783.78 853.96 800.29 712.93 824.54 584.61 845.17 538.77 858.18 626.36 873.12 893.14 850.16 799.33 812.97 583.15 784.8 649.98 747.86 838.33 702.79 994.56 657.16 1007.77 602.69 868.37 540.55 678.55 478.73 549.7 411.71 549.5 344.06 652.42 284.13 798.39 232.49 899.12 196.85 915.16 181.05 848.08 189.73 726.59 225.38 595.59 278.89 472.2 349.48 385.91 425.89 335.2 488.42 310.71 529.78 303.22 537.63 297.38 504.57 297.58 435.39 286.27 341.05 258.1 238.98 229.94 154.56 186.25 103.37 132.92 89.75 85.65 118.27 41.9 180.57 17.58 266.51 19.47 362.37 59.37 454.61 139.35 536.91 226.94 600.43 307.99 643.64 338.17 667.39 285.21 675.22 151.09 673.26 -24.19 660.69 -156.45 647.32 -181.53 638.09 -73.34 626.49 95.82 623.14 219.2 629.83 195.16 636.51 28.1 653.61 -165.96 681.78 -232.85 709.94 -115.66 747.83 87.94 794.27 219.48 840.7 190.15 895.29 35.12 955.7 -125.48 1013.74 -192.45 1073.51 -121.36 1129.48 36.27 1191.17 258.74 1199.3 214.36 1131.27 79.36 1068.36 14.56 997.75 -3.65 932.46 15.38 890.8 60.89 878.3 119.68 902.78 175.83 964.83 236.64 1054.95 283.61 1157.01 311.77Q1157.05 311.78 1157.05 311.78" opacity="0.45"></path><path d="M1123.05 173.16C1210.32 198.98 1272.34 224.29 1300.45 253.59 1294.61 288.99 1254.35 339.23 1188.45 411.94 1105.45 497.83 1016.74 605.52 932.83 721.89 857.93 816 799.02 873.56 757.2 866.68 731.53 797.16 719.57 677.97 716.5 556.09 722.96 499.53 731.12 541.25 736.65 682.27 744.98 856.38 746.8 976.86 740.15 966.57 733.79 831.52 718.11 651.09 692.29 549.15 666.47 603.73 631.73 769.59 589.4 929.82 547.36 988.19 498.57 907.72 445.5 744.1 395.22 580.75 344.54 498.04 298.29 516.49 261.56 617.03 236.46 739.57 228.28 830.93 236.26 870.72 264.56 843.99 312.57 771.31 369.61 666.61 435.15 559.33 499.23 467.01 546.2 382.45 571.78 319.98 567.65 275.19 529.57 235.9 462.32 205.2 375.05 179.38 281.27 153.56 201.4 133.85 147.99 124.44 124.51 120.54 136.87 136.04 180.17 175.86 247.47 223.43 329.46 288.18 415.09 353.09 499.27 385.98 572.8 375.65 631.9 302.02 677.27 176.83 707.95 23.68 727.22 -103.75 735.93 -149.09 739.49 -89.56 742.29 54.85 740.97 199.55 743.58 265.35 752.69 197.05 761.05 26.88 777.59 -144.22 803.41 -198.85 829.23 -96.95 863.1 88.7 903.43 233.74 943.01 254.03 987.37 148.26 1033.43 -6.92 1075.38 -129.03 1114.35 -147.61 1145.43 -64.17 1165.96 84.58 1172.36 234.39 1160.82 337.76 1135.57 378.48 1092.66 357.99 1035.36 303.68 976.62 227.09 917.77 161.93 869.4 120.78 845.02 92.82 847.35 89.54 880.78 102.84 944.15 122.23 1029.24 147.33 1123.01 173.15Q1123.05 173.16 1123.05 173.16" opacity="0.48"></path><path d="M1089.05 296.01C1169.06 319.49 1228.75 358.71 1261.13 413.33 1266.15 469.21 1241.59 540.99 1193.1 623.83 1126.61 699.19 1049.99 769.18 971.88 815.69 895.54 825.28 828.26 789.53 772.96 707.03 728.59 607.39 696.43 510.63 674.09 459.07 660.55 486.11 652.05 592.87 645.11 750.11 641.97 891.05 636.4 955.52 626.07 903.82 616.55 763.33 600.57 602.55 577.1 515.15 553.62 558.51 523.78 700.88 489.02 856.58 455.09 948.06 417.96 925.89 380.42 809.75 346.69 650.93 316.53 518.72 293.9 455.74 280.06 472.52 278.52 548.79 292.13 645.38 316.67 740.68 356.11 799 408.01 814.01 461.69 792.37 517.25 740.9 566.54 676.99 597.83 601.27 609.03 531.63 594.95 475.45 553.51 419.11 489.06 378.43 409.05 354.96 323.64 331.49 249.01 326.34 195.02 338.4 164.09 350.32 162.63 377.26 188.23 412.3 236.17 435.54 300.98 448.35 374.24 433.81 452.13 382.63 526.51 290.62 592.63 164.55 651.27 37.2 698.6 -66.89 735.39 -108.12 763.87 -69.59 785.18 41.55 802.29 183.16 815.1 282.11 827.73 290.94 842.58 190.44 856.36 25.7 874.47 -121.44 897.94 -164.85 921.41 -77.49 949.13 88.02 979.62 237.59 1009.04 298.39 1039.11 247.31 1066.97 123.57 1090.54 -16.45 1107.89 -102.19 1115.59 -104.79 1114.97 -28.81 1101.35 95.78 1073.48 226.18 1038.12 339.46 991.58 408.91 938.12 435.49 889.3 425.16 845.54 393.82 814.79 359.14 806.39 316.98 821.21 287.9 861.19 276.28 924.23 265.93 1003.61 272.53 1089.01 296Q1089.05 296.01 1089.05 296.01" opacity="0.97"></path><path d="M1055.05 538.73C1127.64 559.85 1184.16 592.93 1219.17 634.4 1232.85 672.67 1222.05 712.45 1190.09 744.69 1141.08 761.98 1079.81 757.98 1012.89 724.48 942.66 670.58 875.56 592.97 815.23 506.83 760.46 443.6 714.78 416.87 677.82 448.58 647.27 539.23 623.07 672.85 603.1 810.9 586.67 902.42 571.33 913.61 555.22 832.19 540.05 694.52 522.3 554.85 501.17 481.15 480.05 514.41 456.56 633.05 431.88 776.94 408.15 888.03 385.06 915.95 364.89 856.92 348.25 734.75 337.66 595.52 335.65 482.82 340.05 419.23 355.4 415.44 382.48 456.8 415.13 531.53 457.18 609.88 505.41 673.07 550.34 722.7 592.66 744.45 626.19 743.04 642.66 726.8 641.44 698.84 619.6 668 576.44 633.37 515.64 603.58 443.05 582.45 366.08 561.33 297.32 549.87 244.28 544.67 208.32 535.66 195.76 525.2 205.79 504.83 235.14 469.62 281.36 413.09 338.5 330.9 403.78 235.15 470.93 126.47 535.24 24.05 597.53 -44.98 652.77 -66.24 699.96 -24.65 742.14 66.04 777.18 186.33 806.4 293.02 832.28 336.56 855 296.62 876.09 177.37 896.2 25.34 916.53 -97.58 937.66 -130.84 958.78 -57.14 979.7 86.8 999.43 232.63 1018.18 322.19 1033.89 323.02 1044.62 246.99 1052.01 124.42 1051.76 9.75 1042.15 -58.89 1027.51 -68.6 1002.6 -16.83 968 74.08 931.38 187.91 889.28 295.85 845.99 382.3 810.85 448.36 783.57 487.15 769.7 506.47 775.14 510.84 799.72 509.49 843.83 511.05 905.01 509.43 978.04 517.59 1055.01 538.72Q1055.05 538.73 1055.05 538.73" opacity="0.96"></path><path d="M1021.05 621.52C1086.06 640.3 1138.62 655.05 1174.66 663.51 1194.73 668.94 1195.29 662.75 1178.12 641.11 1146.13 612.38 1101.66 566.61 1049.39 507.48 991 453.04 931.4 402.96 874.13 373.31 818.01 379.99 767.32 427.59 723.06 517.73 682.27 632.47 647.42 753.13 617.84 846.98 590.7 884.47 566.96 851.96 545.65 753.71 525.09 625.95 505.56 508.08 486.78 447.15 468 471.48 450.86 566.93 436.01 693.3 421.91 810.59 411.49 874.84 406.08 870.58 403.13 803.19 407.05 694.42 418.9 576.24 434.22 469.3 457.95 397.38 489.46 365.34 522.12 370.95 559.46 403.77 598.3 448.51 631.02 504.15 658.64 552.19 676.87 586.3 680.28 616.19 669.03 630.49 641.72 631.27 598.43 629.48 542.06 618.4 477.05 599.62 408.57 580.84 346.23 555.26 295.56 521.63 256.96 485.44 236.22 436.97 233.48 374.54 246.28 307.9 274.36 228.94 313.85 144.35 362.64 70.67 416.64 10.9 471.82 -19.32 528.84 -11.89 582.89 37.76 632.01 125.14 679.32 223.77 720.99 315.7 756.89 369.33 790.93 359.83 820.37 284.89 845.7 160.35 870.38 26.74 892.11 -72.51 910.89 -96.84 929.67 -35.91 944.61 85.75 955.34 220.76 965.43 326.26 970.15 369.45 968.66 345.73 965.3 265.64 954.55 161.82 936.19 66.63 916.01 -3.95 888.92 -29.28 856.51 -11.36 825.94 42.9 794.2 119.94 764.95 203.32 745.01 291.39 733.77 368.08 734.73 429.35 751.23 483.54 782.65 523.89 828.49 553.87 886.4 580.81 952.53 602.73 1021.01 621.51Q1021.05 621.52 1021.05 621.52" opacity="0.56"></path><path d="M987.05 448.96C1124.57 472.47 1070.89 340.3 937.38 373.06 837.68 518.95 750.1 723.42 682.31 845.48 619.08 778.63 571.01 562.85 538.15 413.15 498.02 616.65 526.02 676.28 600.8 412.01 673.81 320.63 655.23 410.41 511.05 386.68 392.69 353.81 306.66 272.94 271.48 164.24 281.93 78.3 337.46 27.23 415.35 75.42 508.45 200.74 597.32 357.65 669.45 403.55 739.65 263.31 792.63 31.32 825.49 -62.84 858.36 86.85 868 315.94 854.75 406.88 839.57 308.91 801.99 139.29 751.95 36.47 717.12 30 696.44 114.85 710.06 217.68 769.32 334.78 868.66 416.09 987.01 448.95Q987.05 448.96 987.05 448.96" opacity="0.41"></path><path d="M953.05 219.96C1047.39 248.12 1106.81 252.05 1124.28 254.04 1107.3 282.46 1057.59 355.36 992 491.63 914.38 647.19 839.26 781.37 777.11 800.67 715.33 686.79 668.37 496.38 640.2 379.15 612.03 445.98 605.33 626.48 618.3 771.02 631.63 800.94 662.8 701.4 703.5 553.79 732.18 402.68 752 304.56 748.35 255.14 710.22 232.01 639.39 217.25 545.05 189.08 442.98 160.92 363.25 122.01 319.47 96.33 306.82 96.94 330.74 151.09 377.79 265.29 441.47 375.99 509.52 445.65 569.23 395.08 630.68 229.9 678.36 37.98 706.52 -28.84 734.7 88.38 740.69 290.2 728.06 424.73 717.16 426.07 693.06 321.77 666.3 203.12 656.17 103.77 662.11 74.83 695.39 95.23 759.81 142.05 850.95 191.78 953.01 219.95Q953.05 219.96 953.05 219.96" opacity="0.26"></path><path d="M919.05 198.49C999.06 221.96 1055.12 263.35 1082 329.33 1086.03 406.49 1064.21 517.24 1026.32 642.22 976.47 735.81 922.94 773.4 875.23 715.12 825.63 586.75 786.49 432.54 763.02 345.15 739.55 388.51 733.97 524.36 742.89 664.84 749.92 757.47 766.82 757.38 785.9 689.76 793.03 578.54 789.95 467.42 768.72 383.88 724.64 307.07 659.06 258.08 579.05 234.61 493.64 211.14 423.1 215.4 376.7 251.54 349.25 294.4 348.67 368.89 368.29 449.35 401.54 486.2 443.57 461.39 484.61 351.56 528.72 193.88 565.39 48.51 588.86 5.15 612.34 92.54 620.4 256.26 616.96 401.84 616.59 477.32 611.2 464.63 608.71 401.8 619.85 307.59 645.32 233.47 689.97 196.99 753.56 171.68 833.61 175.01 919.01 198.48Q919.05 198.49 919.05 198.49" opacity="0.09"></path><path d="M885.05 409.3C950.06 428.08 999.54 474.59 1030 540.76 1047.2 602.32 1046.19 669.63 1031.66 718.55 1008.31 730.57 978.56 692.54 948.84 599.26 916.85 484.75 889.36 372.08 870.58 311.15 851.8 335.49 843.51 426.06 842.96 537.98 840.36 677.82 819.79 672.77 779.38 594.49 735.16 534.16 678.06 489.56 613.05 470.78 544.56 452 485.61 460.82 441.98 488.61 408.19 508.98 392.27 530.42 391.83 530.2 400.14 492.43 418.09 409.4 440.02 287.35 464.63 161.67 488.24 63.49 507.02 39.15 525.8 100.08 537.96 220.36 545.9 348.63 556.51 455.68 567.87 513.62 584.16 526.21 609.21 501.9 645.05 463.9 692.6 434.87 749.98 401.24 816.53 390.51 885.01 409.29Q885.05 409.3 885.05 409.3" opacity="0.08"></path><path d="M851.05 609.39C945.39 637.55 996.65 680.63 1003.66 659.55 991.27 569.71 959.5 394.38 931.34 277.15 903.17 344 883.93 508.75 859.41 617.56 815.48 673.02 741.39 653.52 647.05 625.35 544.97 597.18 474.66 565.69 448.48 473.3 439.05 327.58 456.83 140 485 73.15 513.16 190.38 546.39 388.55 592.73 515.29 655.82 573.3 748.97 581.22 851.05 609.39Q851.05 609.39 851.05 609.39" opacity="0.91"></path><path d="M817.05 568.11C937.68 605.66 965.03 427.12 927.48 243.15 889.92 367.86 801.68 557.7 681.05 520.15 546.85 482.59 491.69 231.86 529.25 107.15 566.8 291.12 682.85 530.55 817.05 568.11Q817.05 568.11 817.05 568.11" opacity="0.83"></path></g></svg>